<mxfile host="app.diagrams.net" agent="Mozilla/5.0 (Windows NT 10.0; Win64; x64; rv:130.0) Gecko/20100101 Firefox/130.0" version="24.7.16">
  <diagram name="Page-1" id="--WpICFDsw-mHfHGqRCz">
    <mxGraphModel dx="3457" dy="2740" grid="1" gridSize="10" guides="1" tooltips="1" connect="1" arrows="1" fold="1" page="1" pageScale="1" pageWidth="850" pageHeight="1100" math="0" shadow="0">
      <root>
        <mxCell id="0" />
        <mxCell id="1" parent="0" />
        <mxCell id="-aemcJLPIjBtYSkqUaml-6" style="edgeStyle=orthogonalEdgeStyle;rounded=0;orthogonalLoop=1;jettySize=auto;html=1;exitX=0.5;exitY=1;exitDx=0;exitDy=0;" edge="1" parent="1" source="-aemcJLPIjBtYSkqUaml-8" target="-aemcJLPIjBtYSkqUaml-5">
          <mxGeometry relative="1" as="geometry">
            <mxPoint x="490" y="150" as="sourcePoint" />
          </mxGeometry>
        </mxCell>
        <mxCell id="-aemcJLPIjBtYSkqUaml-10" style="edgeStyle=orthogonalEdgeStyle;rounded=0;orthogonalLoop=1;jettySize=auto;html=1;entryX=0.5;entryY=0;entryDx=0;entryDy=0;" edge="1" parent="1" source="-aemcJLPIjBtYSkqUaml-5" target="-aemcJLPIjBtYSkqUaml-9">
          <mxGeometry relative="1" as="geometry" />
        </mxCell>
        <mxCell id="-aemcJLPIjBtYSkqUaml-5" value="Kartu, PIN, Saldo" style="shape=hexagon;perimeter=hexagonPerimeter2;whiteSpace=wrap;html=1;fixedSize=1;" vertex="1" parent="1">
          <mxGeometry x="430" y="190" width="120" height="80" as="geometry" />
        </mxCell>
        <mxCell id="-aemcJLPIjBtYSkqUaml-8" value="Start" style="ellipse;whiteSpace=wrap;html=1;" vertex="1" parent="1">
          <mxGeometry x="440" y="80" width="100" height="60" as="geometry" />
        </mxCell>
        <mxCell id="-aemcJLPIjBtYSkqUaml-13" style="edgeStyle=orthogonalEdgeStyle;rounded=0;orthogonalLoop=1;jettySize=auto;html=1;" edge="1" parent="1" source="-aemcJLPIjBtYSkqUaml-9" target="-aemcJLPIjBtYSkqUaml-11">
          <mxGeometry relative="1" as="geometry" />
        </mxCell>
        <mxCell id="-aemcJLPIjBtYSkqUaml-9" value="Kartu dimasukkan" style="shape=parallelogram;perimeter=parallelogramPerimeter;whiteSpace=wrap;html=1;fixedSize=1;size=-15;" vertex="1" parent="1">
          <mxGeometry x="415" y="320" width="150" height="60" as="geometry" />
        </mxCell>
        <mxCell id="-aemcJLPIjBtYSkqUaml-14" style="edgeStyle=orthogonalEdgeStyle;rounded=0;orthogonalLoop=1;jettySize=auto;html=1;" edge="1" parent="1" source="-aemcJLPIjBtYSkqUaml-11" target="-aemcJLPIjBtYSkqUaml-12">
          <mxGeometry relative="1" as="geometry" />
        </mxCell>
        <mxCell id="-aemcJLPIjBtYSkqUaml-11" value="Isi PIN dengan benar" style="shape=parallelogram;perimeter=parallelogramPerimeter;whiteSpace=wrap;html=1;fixedSize=1;size=-20;" vertex="1" parent="1">
          <mxGeometry x="410" y="440" width="160" height="60" as="geometry" />
        </mxCell>
        <mxCell id="-aemcJLPIjBtYSkqUaml-16" style="edgeStyle=orthogonalEdgeStyle;rounded=0;orthogonalLoop=1;jettySize=auto;html=1;" edge="1" parent="1" source="-aemcJLPIjBtYSkqUaml-12" target="-aemcJLPIjBtYSkqUaml-15">
          <mxGeometry relative="1" as="geometry" />
        </mxCell>
        <mxCell id="-aemcJLPIjBtYSkqUaml-12" value="Tarik jumlah saldo yang ada" style="shape=parallelogram;perimeter=parallelogramPerimeter;whiteSpace=wrap;html=1;fixedSize=1;size=-45;" vertex="1" parent="1">
          <mxGeometry x="385" y="550" width="210" height="60" as="geometry" />
        </mxCell>
        <mxCell id="-aemcJLPIjBtYSkqUaml-18" style="edgeStyle=orthogonalEdgeStyle;rounded=0;orthogonalLoop=1;jettySize=auto;html=1;" edge="1" parent="1" source="-aemcJLPIjBtYSkqUaml-15" target="-aemcJLPIjBtYSkqUaml-17">
          <mxGeometry relative="1" as="geometry" />
        </mxCell>
        <mxCell id="-aemcJLPIjBtYSkqUaml-15" value="Hasil saldo didapatkan" style="shape=parallelogram;perimeter=parallelogramPerimeter;whiteSpace=wrap;html=1;fixedSize=1;" vertex="1" parent="1">
          <mxGeometry x="430" y="650" width="120" height="60" as="geometry" />
        </mxCell>
        <mxCell id="-aemcJLPIjBtYSkqUaml-17" value="End" style="ellipse;whiteSpace=wrap;html=1;" vertex="1" parent="1">
          <mxGeometry x="630" y="655" width="80" height="50" as="geometry" />
        </mxCell>
        <mxCell id="-aemcJLPIjBtYSkqUaml-21" style="edgeStyle=orthogonalEdgeStyle;rounded=0;orthogonalLoop=1;jettySize=auto;html=1;" edge="1" parent="1" source="-aemcJLPIjBtYSkqUaml-19" target="-aemcJLPIjBtYSkqUaml-20">
          <mxGeometry relative="1" as="geometry" />
        </mxCell>
        <mxCell id="-aemcJLPIjBtYSkqUaml-19" value="Start" style="ellipse;whiteSpace=wrap;html=1;" vertex="1" parent="1">
          <mxGeometry x="-80" y="60" width="90" height="60" as="geometry" />
        </mxCell>
        <mxCell id="-aemcJLPIjBtYSkqUaml-25" style="edgeStyle=orthogonalEdgeStyle;rounded=0;orthogonalLoop=1;jettySize=auto;html=1;" edge="1" parent="1" source="-aemcJLPIjBtYSkqUaml-20" target="-aemcJLPIjBtYSkqUaml-22">
          <mxGeometry relative="1" as="geometry" />
        </mxCell>
        <mxCell id="-aemcJLPIjBtYSkqUaml-29" style="edgeStyle=orthogonalEdgeStyle;rounded=0;orthogonalLoop=1;jettySize=auto;html=1;" edge="1" parent="1" source="-aemcJLPIjBtYSkqUaml-20" target="-aemcJLPIjBtYSkqUaml-23">
          <mxGeometry relative="1" as="geometry" />
        </mxCell>
        <mxCell id="-aemcJLPIjBtYSkqUaml-20" value="Int a, b, c, Alas, Tinggi" style="shape=hexagon;perimeter=hexagonPerimeter2;whiteSpace=wrap;html=1;fixedSize=1;" vertex="1" parent="1">
          <mxGeometry x="-87.5" y="150" width="105" height="70" as="geometry" />
        </mxCell>
        <mxCell id="-aemcJLPIjBtYSkqUaml-28" style="edgeStyle=orthogonalEdgeStyle;rounded=0;orthogonalLoop=1;jettySize=auto;html=1;" edge="1" parent="1" source="-aemcJLPIjBtYSkqUaml-22" target="-aemcJLPIjBtYSkqUaml-26">
          <mxGeometry relative="1" as="geometry" />
        </mxCell>
        <mxCell id="-aemcJLPIjBtYSkqUaml-22" value="Luas=Alas*Tinggi" style="rounded=0;whiteSpace=wrap;html=1;" vertex="1" parent="1">
          <mxGeometry x="-95" y="250" width="120" height="60" as="geometry" />
        </mxCell>
        <mxCell id="-aemcJLPIjBtYSkqUaml-27" style="edgeStyle=orthogonalEdgeStyle;rounded=0;orthogonalLoop=1;jettySize=auto;html=1;entryX=0;entryY=0.5;entryDx=0;entryDy=0;" edge="1" parent="1" source="-aemcJLPIjBtYSkqUaml-23" target="-aemcJLPIjBtYSkqUaml-26">
          <mxGeometry relative="1" as="geometry" />
        </mxCell>
        <mxCell id="-aemcJLPIjBtYSkqUaml-23" value="Keliling=a*b*c" style="rounded=0;whiteSpace=wrap;html=1;" vertex="1" parent="1">
          <mxGeometry x="80" y="300" width="120" height="60" as="geometry" />
        </mxCell>
        <mxCell id="-aemcJLPIjBtYSkqUaml-34" style="edgeStyle=orthogonalEdgeStyle;rounded=0;orthogonalLoop=1;jettySize=auto;html=1;entryX=0;entryY=0.5;entryDx=0;entryDy=0;" edge="1" parent="1" source="-aemcJLPIjBtYSkqUaml-26" target="-aemcJLPIjBtYSkqUaml-20">
          <mxGeometry relative="1" as="geometry" />
        </mxCell>
        <mxCell id="-aemcJLPIjBtYSkqUaml-26" value="&lt;div&gt;Tampilkan Luas=%d&lt;/div&gt;&lt;div&gt;Tampilkan Keliling=%d&lt;br&gt;&lt;/div&gt;" style="shape=parallelogram;perimeter=parallelogramPerimeter;whiteSpace=wrap;html=1;fixedSize=1;" vertex="1" parent="1">
          <mxGeometry x="-330" y="330" width="175" height="60" as="geometry" />
        </mxCell>
        <mxCell id="-aemcJLPIjBtYSkqUaml-33" style="edgeStyle=orthogonalEdgeStyle;rounded=0;orthogonalLoop=1;jettySize=auto;html=1;entryX=0.5;entryY=1;entryDx=0;entryDy=0;" edge="1" parent="1" source="-aemcJLPIjBtYSkqUaml-32" target="-aemcJLPIjBtYSkqUaml-26">
          <mxGeometry relative="1" as="geometry" />
        </mxCell>
        <mxCell id="-aemcJLPIjBtYSkqUaml-32" value="End" style="ellipse;whiteSpace=wrap;html=1;" vertex="1" parent="1">
          <mxGeometry x="-143" y="400" width="63" height="40" as="geometry" />
        </mxCell>
        <mxCell id="-aemcJLPIjBtYSkqUaml-38" style="edgeStyle=orthogonalEdgeStyle;rounded=0;orthogonalLoop=1;jettySize=auto;html=1;" edge="1" parent="1" source="-aemcJLPIjBtYSkqUaml-35" target="-aemcJLPIjBtYSkqUaml-36">
          <mxGeometry relative="1" as="geometry" />
        </mxCell>
        <mxCell id="-aemcJLPIjBtYSkqUaml-35" value="Start" style="ellipse;whiteSpace=wrap;html=1;" vertex="1" parent="1">
          <mxGeometry x="950" y="110" width="100" height="60" as="geometry" />
        </mxCell>
        <mxCell id="-aemcJLPIjBtYSkqUaml-39" style="edgeStyle=orthogonalEdgeStyle;rounded=0;orthogonalLoop=1;jettySize=auto;html=1;" edge="1" parent="1" source="-aemcJLPIjBtYSkqUaml-36" target="-aemcJLPIjBtYSkqUaml-37">
          <mxGeometry relative="1" as="geometry" />
        </mxCell>
        <mxCell id="-aemcJLPIjBtYSkqUaml-36" value="Int gaji_karyawan, gaji_perjam, jam_kerja" style="shape=hexagon;perimeter=hexagonPerimeter2;whiteSpace=wrap;html=1;fixedSize=1;" vertex="1" parent="1">
          <mxGeometry x="940" y="200" width="120" height="80" as="geometry" />
        </mxCell>
        <mxCell id="-aemcJLPIjBtYSkqUaml-41" style="edgeStyle=orthogonalEdgeStyle;rounded=0;orthogonalLoop=1;jettySize=auto;html=1;" edge="1" parent="1" source="-aemcJLPIjBtYSkqUaml-37" target="-aemcJLPIjBtYSkqUaml-40">
          <mxGeometry relative="1" as="geometry" />
        </mxCell>
        <mxCell id="-aemcJLPIjBtYSkqUaml-37" value="gaji_perjam*jam_kerja=gaji_karyawan" style="rounded=0;whiteSpace=wrap;html=1;" vertex="1" parent="1">
          <mxGeometry x="870" y="320" width="260" height="60" as="geometry" />
        </mxCell>
        <mxCell id="-aemcJLPIjBtYSkqUaml-43" style="edgeStyle=orthogonalEdgeStyle;rounded=0;orthogonalLoop=1;jettySize=auto;html=1;" edge="1" parent="1" source="-aemcJLPIjBtYSkqUaml-40" target="-aemcJLPIjBtYSkqUaml-42">
          <mxGeometry relative="1" as="geometry" />
        </mxCell>
        <mxCell id="-aemcJLPIjBtYSkqUaml-40" value="Tampilkan gaji_karyawan" style="shape=parallelogram;perimeter=parallelogramPerimeter;whiteSpace=wrap;html=1;fixedSize=1;" vertex="1" parent="1">
          <mxGeometry x="940" y="410" width="120" height="60" as="geometry" />
        </mxCell>
        <mxCell id="-aemcJLPIjBtYSkqUaml-42" value="End" style="ellipse;whiteSpace=wrap;html=1;" vertex="1" parent="1">
          <mxGeometry x="970" y="500" width="60" height="40" as="geometry" />
        </mxCell>
        <mxCell id="-aemcJLPIjBtYSkqUaml-47" style="edgeStyle=orthogonalEdgeStyle;rounded=0;orthogonalLoop=1;jettySize=auto;html=1;" edge="1" parent="1" source="-aemcJLPIjBtYSkqUaml-44" target="-aemcJLPIjBtYSkqUaml-45">
          <mxGeometry relative="1" as="geometry" />
        </mxCell>
        <mxCell id="-aemcJLPIjBtYSkqUaml-44" value="Start" style="ellipse;whiteSpace=wrap;html=1;" vertex="1" parent="1">
          <mxGeometry x="1420" y="110" width="80" height="50" as="geometry" />
        </mxCell>
        <mxCell id="-aemcJLPIjBtYSkqUaml-48" style="edgeStyle=orthogonalEdgeStyle;rounded=0;orthogonalLoop=1;jettySize=auto;html=1;" edge="1" parent="1" source="-aemcJLPIjBtYSkqUaml-45" target="-aemcJLPIjBtYSkqUaml-46">
          <mxGeometry relative="1" as="geometry" />
        </mxCell>
        <mxCell id="-aemcJLPIjBtYSkqUaml-45" value="Boolean kompor, panci, air, mie" style="shape=hexagon;perimeter=hexagonPerimeter2;whiteSpace=wrap;html=1;fixedSize=1;" vertex="1" parent="1">
          <mxGeometry x="1405" y="185" width="110" height="60" as="geometry" />
        </mxCell>
        <mxCell id="-aemcJLPIjBtYSkqUaml-62" style="edgeStyle=orthogonalEdgeStyle;rounded=0;orthogonalLoop=1;jettySize=auto;html=1;entryX=0.5;entryY=0;entryDx=0;entryDy=0;" edge="1" parent="1" source="-aemcJLPIjBtYSkqUaml-46" target="-aemcJLPIjBtYSkqUaml-51">
          <mxGeometry relative="1" as="geometry" />
        </mxCell>
        <mxCell id="-aemcJLPIjBtYSkqUaml-46" value="&lt;div&gt;SET kompor=true&lt;/div&gt;&lt;div&gt;SET panci=true&lt;/div&gt;&lt;div&gt;SET air=true&lt;/div&gt;" style="rounded=0;whiteSpace=wrap;html=1;" vertex="1" parent="1">
          <mxGeometry x="1400" y="285" width="120" height="60" as="geometry" />
        </mxCell>
        <mxCell id="-aemcJLPIjBtYSkqUaml-55" style="edgeStyle=orthogonalEdgeStyle;rounded=0;orthogonalLoop=1;jettySize=auto;html=1;" edge="1" parent="1" target="-aemcJLPIjBtYSkqUaml-50">
          <mxGeometry relative="1" as="geometry">
            <mxPoint x="1460" y="430" as="sourcePoint" />
          </mxGeometry>
        </mxCell>
        <mxCell id="-aemcJLPIjBtYSkqUaml-57" style="edgeStyle=orthogonalEdgeStyle;rounded=0;orthogonalLoop=1;jettySize=auto;html=1;entryX=0.5;entryY=0;entryDx=0;entryDy=0;" edge="1" parent="1" source="-aemcJLPIjBtYSkqUaml-51" target="-aemcJLPIjBtYSkqUaml-52">
          <mxGeometry relative="1" as="geometry" />
        </mxCell>
        <mxCell id="-aemcJLPIjBtYSkqUaml-51" value="&lt;div&gt;&lt;br&gt;&lt;/div&gt;&lt;div&gt;if (air, panci, kompor === true) {&lt;br&gt;&lt;/div&gt;&lt;div&gt;SET mie=true&lt;/div&gt;&lt;div&gt;} else {&lt;/div&gt;&lt;div&gt;mie=false&lt;br&gt;&lt;/div&gt;&lt;div&gt;}&lt;br&gt;&lt;/div&gt;" style="rounded=0;whiteSpace=wrap;html=1;" vertex="1" parent="1">
          <mxGeometry x="1365" y="380" width="190" height="110" as="geometry" />
        </mxCell>
        <mxCell id="-aemcJLPIjBtYSkqUaml-58" style="edgeStyle=orthogonalEdgeStyle;rounded=0;orthogonalLoop=1;jettySize=auto;html=1;" edge="1" parent="1" source="-aemcJLPIjBtYSkqUaml-52" target="-aemcJLPIjBtYSkqUaml-53">
          <mxGeometry relative="1" as="geometry" />
        </mxCell>
        <mxCell id="-aemcJLPIjBtYSkqUaml-52" value="&lt;div&gt;if mie=true {&lt;/div&gt;&lt;div&gt;printf(&quot;Mie siap dimakan&quot;)&lt;br&gt;&lt;/div&gt;&lt;div&gt;}&lt;/div&gt;" style="shape=parallelogram;perimeter=parallelogramPerimeter;whiteSpace=wrap;html=1;fixedSize=1;" vertex="1" parent="1">
          <mxGeometry x="1297.5" y="530" width="325" height="90" as="geometry" />
        </mxCell>
        <mxCell id="-aemcJLPIjBtYSkqUaml-53" value="End" style="ellipse;whiteSpace=wrap;html=1;" vertex="1" parent="1">
          <mxGeometry x="1425" y="665" width="70" height="40" as="geometry" />
        </mxCell>
        <mxCell id="-aemcJLPIjBtYSkqUaml-74" style="edgeStyle=orthogonalEdgeStyle;rounded=0;orthogonalLoop=1;jettySize=auto;html=1;" edge="1" parent="1" source="-aemcJLPIjBtYSkqUaml-59" target="-aemcJLPIjBtYSkqUaml-63">
          <mxGeometry relative="1" as="geometry" />
        </mxCell>
        <mxCell id="-aemcJLPIjBtYSkqUaml-59" value="Start" style="ellipse;whiteSpace=wrap;html=1;" vertex="1" parent="1">
          <mxGeometry x="1890" y="130" width="70" height="45" as="geometry" />
        </mxCell>
        <mxCell id="-aemcJLPIjBtYSkqUaml-75" style="edgeStyle=orthogonalEdgeStyle;rounded=0;orthogonalLoop=1;jettySize=auto;html=1;entryX=0.5;entryY=0;entryDx=0;entryDy=0;" edge="1" parent="1" source="-aemcJLPIjBtYSkqUaml-63" target="-aemcJLPIjBtYSkqUaml-70">
          <mxGeometry relative="1" as="geometry" />
        </mxCell>
        <mxCell id="-aemcJLPIjBtYSkqUaml-63" value="&lt;div&gt;Boolean email, dosen, terkirim&lt;/div&gt;&lt;div&gt;String pesan&lt;br&gt;&lt;/div&gt;" style="shape=hexagon;perimeter=hexagonPerimeter2;whiteSpace=wrap;html=1;fixedSize=1;" vertex="1" parent="1">
          <mxGeometry x="1865" y="200" width="120" height="80" as="geometry" />
        </mxCell>
        <mxCell id="-aemcJLPIjBtYSkqUaml-64" value="Masak mie" style="text;strokeColor=none;align=center;fillColor=none;html=1;verticalAlign=middle;whiteSpace=wrap;rounded=0;fontStyle=1;fontSize=19;" vertex="1" parent="1">
          <mxGeometry x="1430" y="40" width="60" height="30" as="geometry" />
        </mxCell>
        <mxCell id="-aemcJLPIjBtYSkqUaml-65" value="Kirim email" style="text;strokeColor=none;align=center;fillColor=none;html=1;verticalAlign=middle;whiteSpace=wrap;rounded=0;fontStyle=1;fontSize=19;" vertex="1" parent="1">
          <mxGeometry x="1900" y="50" width="60" height="30" as="geometry" />
        </mxCell>
        <mxCell id="-aemcJLPIjBtYSkqUaml-67" value="Gaji karyawan" style="text;strokeColor=none;align=center;fillColor=none;html=1;verticalAlign=middle;whiteSpace=wrap;rounded=0;fontStyle=1;fontSize=19;" vertex="1" parent="1">
          <mxGeometry x="970" y="30" width="60" height="30" as="geometry" />
        </mxCell>
        <mxCell id="-aemcJLPIjBtYSkqUaml-68" value="Ambil Duit di ATM" style="text;strokeColor=none;align=center;fillColor=none;html=1;verticalAlign=middle;whiteSpace=wrap;rounded=0;fontStyle=1;fontSize=19;" vertex="1" parent="1">
          <mxGeometry x="420" y="10" width="140" height="30" as="geometry" />
        </mxCell>
        <mxCell id="-aemcJLPIjBtYSkqUaml-69" value="Luas dan Keliling Segitiga" style="text;strokeColor=none;align=center;fillColor=none;html=1;verticalAlign=middle;whiteSpace=wrap;rounded=0;fontStyle=1;fontSize=19;" vertex="1" parent="1">
          <mxGeometry x="-65" y="-30" width="60" height="30" as="geometry" />
        </mxCell>
        <mxCell id="-aemcJLPIjBtYSkqUaml-76" style="edgeStyle=orthogonalEdgeStyle;rounded=0;orthogonalLoop=1;jettySize=auto;html=1;entryX=0.5;entryY=0;entryDx=0;entryDy=0;" edge="1" parent="1" source="-aemcJLPIjBtYSkqUaml-70" target="-aemcJLPIjBtYSkqUaml-79">
          <mxGeometry relative="1" as="geometry">
            <mxPoint x="1925" y="410" as="targetPoint" />
          </mxGeometry>
        </mxCell>
        <mxCell id="-aemcJLPIjBtYSkqUaml-70" value="&lt;div&gt;SET email=true&lt;/div&gt;&lt;div&gt;SET dosen=true&lt;br&gt;&lt;/div&gt;" style="rounded=0;whiteSpace=wrap;html=1;" vertex="1" parent="1">
          <mxGeometry x="1865" y="310" width="120" height="60" as="geometry" />
        </mxCell>
        <mxCell id="-aemcJLPIjBtYSkqUaml-78" style="edgeStyle=orthogonalEdgeStyle;rounded=0;orthogonalLoop=1;jettySize=auto;html=1;entryX=0.5;entryY=0;entryDx=0;entryDy=0;" edge="1" parent="1" source="-aemcJLPIjBtYSkqUaml-79" target="-aemcJLPIjBtYSkqUaml-73">
          <mxGeometry relative="1" as="geometry">
            <mxPoint x="1925" y="500" as="sourcePoint" />
          </mxGeometry>
        </mxCell>
        <mxCell id="-aemcJLPIjBtYSkqUaml-73" value="End" style="ellipse;whiteSpace=wrap;html=1;" vertex="1" parent="1">
          <mxGeometry x="1895" y="530" width="60" height="40" as="geometry" />
        </mxCell>
        <mxCell id="-aemcJLPIjBtYSkqUaml-79" value="&lt;div&gt;if (email,dosen === true) {&lt;/div&gt;&lt;div&gt;printf(&quot;$PESAN terkirim&quot;)&lt;br&gt;&lt;/div&gt;&lt;div&gt;}&lt;/div&gt;" style="shape=parallelogram;perimeter=parallelogramPerimeter;whiteSpace=wrap;html=1;fixedSize=1;" vertex="1" parent="1">
          <mxGeometry x="1795" y="420" width="260" height="60" as="geometry" />
        </mxCell>
      </root>
    </mxGraphModel>
  </diagram>
</mxfile>
